# xmcd
#
# Track frame offsets: 
#        150
#        27972
#        48633
#        72993
#        93479
#        107069
#        130718
#        152681
#        179144
#        200418
#        216453
#        235275
#        250885
#        268578
#        288054
#        314273
#        338068
#
# Disc length: 4790 seconds
#
# Revision: 1
# Processed by: cddbd v1.5.2PL0 Copyright (c) Steve Scherf et al.
# Submitted via: ExactAudioCopy v0.99pb3
#
DISCID=0012b411
DTITLE=Нэнси - Grand Collection
DYEAR=2004
DGENRE=Pop
TTITLE0=Дым сигарет с ментолом
TTITLE1=Ромео
TTITLE2=Черный кадиллак
TTITLE3=Лада
TTITLE4=Луна
TTITLE5=Я ухожу тебя любя
TTITLE6=Ты моя навсегда
TTITLE7=Плакала гитара
TTITLE8=Падает снег
TTITLE9=Два крыла
TTITLE10=Я робот
TTITLE11=Две недели
TTITLE12=Мавританка
TTITLE13=Свет твоих глаз
TTITLE14=Шампанское
TTITLE15=Белая метель
TTITLE16=Ты-ты-ты
EXTD=
EXTT0=
EXTT1=
EXTT2=
EXTT3=
EXTT4=
EXTT5=
EXTT6=
EXTT7=
EXTT8=
EXTT9=
EXTT10=
EXTT11=
EXTT12=
EXTT13=
EXTT14=
EXTT15=
EXTT16=
PLAYORDER=
